        <svg xmlns="http://www.w3.org/2000/svg" width="24" height="24" viewBox="0 0 15 18" fill="none"><path fill-rule="evenodd" clip-rule="evenodd" d="M9.71923 3.61918C9.71923 4.60976 8.9162 5.41279 7.92563 5.41279C6.93505 5.41279 6.13202 4.60976 6.13202 3.61918C6.13202 2.62861 6.93505 1.82558 7.92563 1.82558C8.9162 1.82558 9.71923 2.62861 9.71923 3.61918ZM11.5128 3.61918C11.5128 5.60034 9.90678 7.20639 7.92563 7.20639C5.94447 7.20639 4.33842 5.60034 4.33842 3.61918C4.33842 1.63803 5.94447 0.0319824 7.92563 0.0319824C9.90678 0.0319824 11.5128 1.63803 11.5128 3.61918ZM7.92562 16.1744C6.36197 16.1744 4.20657 15.8611 2.72482 15.6072C2.91579 13.8983 3.20774 12.5593 3.82443 11.6029C4.40979 10.695 5.44784 9.89679 7.92562 9.89679C10.4034 9.89679 11.4415 10.695 12.0268 11.6029C12.6435 12.5593 12.9355 13.8983 13.1264 15.6072C11.6447 15.8611 9.48928 16.1744 7.92562 16.1744ZM7.92562 17.968C10.0037 17.968 12.913 17.4774 14.2869 17.2219C14.7322 17.1391 15.0371 16.7319 14.9963 16.2808C14.6207 12.1179 13.8299 8.10319 7.92562 8.10319C2.0213 8.10319 1.23058 12.1179 0.854897 16.2808C0.814186 16.7319 1.11905 17.1391 1.56437 17.2219C2.93827 17.4774 5.8475 17.968 7.92562 17.968Z" fill="#858585"/></svg>