<svg xmlns="http://www.w3.org/2000/svg" width="22" height="20" viewBox="0 0 22 20" fill="none">
<path fill-rule="evenodd" clip-rule="evenodd" d="M16.0691 5.58564C16.0868 5.56925 16.1042 5.5525 16.1213 5.53538C17.2929 4.36381 17.2929 2.46432 16.1213 1.29274C14.9497 0.121169 13.0502 0.121169 11.8787 1.29274C11.4974 1.67399 11.2988 2.19731 11.1827 2.61253C11.0583 3.05738 10.9869 3.53756 10.9444 3.96035C10.9323 4.07983 10.9224 4.19691 10.9142 4.3099C10.906 4.19691 10.8961 4.07983 10.8841 3.96036C10.8415 3.53756 10.7701 3.05738 10.6457 2.61254C10.5296 2.19732 10.331 1.674 9.94976 1.29275C8.77819 0.121175 6.87869 0.121175 5.70712 1.29275C4.53555 2.46432 4.53555 4.36382 5.70712 5.53539C5.72423 5.5525 5.74164 5.56925 5.7593 5.58564H1.5C0.947715 5.58564 0.5 6.03335 0.5 6.58564L0.5 8.58564C0.5 9.13792 0.947715 9.58564 1.5 9.58564H2L2 18.5856C2 19.1379 2.44772 19.5856 3 19.5856L9 19.5856H13L19 19.5856C19.5523 19.5856 20 19.1379 20 18.5856L20 9.58564H20.5C21.0523 9.58564 21.5 9.13792 21.5 8.58564V6.58564C21.5 6.03335 21.0523 5.58564 20.5 5.58564H16.0691ZM13 18.5856H18C18.5523 18.5856 19 18.1379 19 17.5856V10.5856C19 10.0334 18.5523 9.58564 18 9.58564L13 9.58564L13 18.5856ZM13 8.58564L20 8.58564H20.3C20.4105 8.58564 20.5 8.49609 20.5 8.38564V7.58564C20.5 7.03335 20.0523 6.58564 19.5 6.58564H13V8.58564ZM12 6.58564V8.58564H10V6.58564H12ZM9 6.58564L2.5 6.58564C1.94772 6.58564 1.5 7.03335 1.5 7.58564V8.38564C1.5 8.49609 1.58954 8.58564 1.7 8.58564H2H9V6.58564ZM9 9.58564H4C3.44772 9.58564 3 10.0334 3 10.5856L3 17.5856C3 18.1379 3.44772 18.5856 4 18.5856H9L9 9.58564ZM10 18.5856H12L12 9.58564H10L10 18.5856ZM15.4142 4.82828C14.6332 5.60932 11.8787 5.53538 11.8787 5.53538C11.8787 5.53538 11.8047 2.7809 12.5858 1.99985C13.3668 1.2188 14.6332 1.2188 15.4142 1.99985C16.1953 2.7809 16.1953 4.04723 15.4142 4.82828ZM9.94976 5.53539C9.94976 5.53539 10.0237 2.7809 9.24266 1.99985C8.46161 1.21881 7.19528 1.21881 6.41423 1.99985C5.63318 2.7809 5.63318 4.04723 6.41423 4.82828C7.19528 5.60933 9.94976 5.53539 9.94976 5.53539Z" fill="url(#paint0_linear)"/>
<defs>
<linearGradient id="paint0_linear" x1="11" y1="0.414062" x2="11" y2="19.5856" gradientUnits="userSpaceOnUse">
<stop stop-color="#FDB87E"/>
<stop offset="1" stop-color="#FD957E"/>
</linearGradient>
</defs>
</svg>