<svg xmlns="http://www.w3.org/2000/svg" width="141" height="142" viewBox="0 0 141 142" fill="none">
<g clip-path="url(#clip0)">
<path d="M33.8962 8.53244C29.1584 15.3879 34.7112 26.5049 27.6855 31.6587C20.8464 36.676 12.4411 28.4504 5.9947 32.7704C-3.56437 39.1822 -1.82145 68.5105 12.1612 86.7317C16.3639 92.2122 19.8792 94.3429 21.4355 100.54C24.779 113.846 13.0351 121.765 15.269 128.342C20.3014 143.16 97.6823 155.598 128.731 111.062C143.234 90.2618 145.399 60.2264 132.447 37.4122C109.033 -3.80839 44.5207 -6.85093 33.8962 8.53244Z" fill="#F4F7FA"/>
<path d="M85.3059 131.039C89.1354 129.888 95.5818 127.957 100.275 122.072C108.808 111.375 106 94.5675 100.069 83.865C94.973 74.674 85.5219 68.6864 66.6198 56.7161C48.8224 45.4431 42.7393 44.1364 41.2321 37.2712C39.0865 27.4853 49.279 20.2397 45.0518 9.20077C44.5461 7.87453 42.8031 3.32534 38.625 1.60416C31.4717 -1.34087 22.1974 6.07046 17.8524 11.5461C13.6595 16.8218 9.13776 26.4955 12.4959 34.331C14.9311 40.0114 19.4333 39.9041 20.3759 45.1213C21.3235 50.3726 17.0472 52.0645 15.049 60.6997C14.2487 64.147 12.6481 71.0707 15.7019 77.0388C19.6542 84.7573 27.8238 83.8942 29.2918 90.306C30.3523 94.9381 26.4344 96.9079 26.5081 102.267C26.6013 109.327 33.5092 114.52 39.3124 118.762C46.1466 123.764 64.5872 137.251 85.3059 131.039Z" fill="url(#paint0_linear)"/>
<path opacity="0.16" d="M35.8761 4.59309C39.6762 7.40159 28.0501 19.0062 30.7112 34.8966C33.5735 51.9914 51.2335 63.6204 59.3982 68.9936C73.322 78.1602 79.4295 76.5073 88.2571 86.6199C91.7478 90.6229 99.0288 98.9607 97.8211 110.165C97.7081 111.209 96.2843 122.799 87.0788 128.011C76.6409 133.926 64.1262 127.133 53.3446 121.282C46.8295 117.747 33.819 110.687 35.012 103.422C35.7435 98.9802 41.6106 95.4891 46.3729 94.5773C53.1728 93.2754 58.647 97.0542 59.2951 95.9084C59.8793 94.8747 55.9958 90.818 50.5903 87.7316C39.7793 81.5538 33.9319 85.5764 25.939 79.896C24.9718 79.2085 17.3717 73.6403 17.4846 65.5268C17.5484 60.846 20.18 55.1997 24.0144 54.366C28.3496 53.4249 32.3608 59.0517 33.3869 58.1643C34.3688 57.3159 31.3052 51.6599 27.4512 46.5061C21.7903 38.9338 19.149 38.7632 17.1115 34.0238C14.0086 26.788 16.8316 19.4206 17.2489 18.3674C21.1914 8.50353 32.6259 2.18928 35.8761 4.59309Z" fill="white"/>
<path d="M93.5429 129.942C96.0616 130.483 100.299 131.395 104.796 129.542C112.965 126.168 116.672 115.831 116.702 107.962C116.726 101.204 113.285 94.8991 106.411 82.2901C99.9353 70.4173 96.9208 67.7941 98.2316 63.4595C100.102 57.2817 108.12 56.3651 109.214 48.8367C109.347 47.9347 109.799 44.8288 107.987 42.5615C104.884 38.6803 97.3332 39.9773 93.1649 41.7131C89.1439 43.3855 83.5518 47.4276 82.9774 52.8837C82.5601 56.838 85.1327 58.174 84.0182 61.4019C82.8988 64.6541 79.958 64.2786 76.1137 68.5206C74.577 70.2126 71.4986 73.6159 71.3415 77.9262C71.1402 83.4993 76.0106 85.5472 74.8225 89.6136C73.9633 92.5538 71.1402 92.4417 69.4906 95.4842C67.3254 99.4873 69.579 104.558 71.5085 108.747C73.7816 113.696 79.9187 127.012 93.5429 129.942Z" fill="url(#paint1_linear)"/>
<path opacity="0.16" d="M105.492 43.3953C106.749 46.1599 96.547 49.0806 93.0465 58.8567C89.2808 69.3739 95.5651 81.4027 98.4716 86.9612C103.425 96.4447 107.388 97.4102 109.175 105.841C109.882 109.181 111.355 116.133 107.152 122.067C106.759 122.618 102.311 128.703 95.4866 128.782C87.749 128.869 82.8393 121.165 78.6072 114.524C76.0493 110.512 70.9432 102.496 73.9038 98.7754C75.7105 96.5033 80.1145 96.357 83.0848 97.3224C87.3218 98.6974 89.2169 102.525 89.9436 102.081C90.5966 101.681 89.6883 98.1903 87.6164 94.7772C83.4727 87.9461 78.9116 88.3947 76.1966 82.7143C75.8676 82.0268 73.3391 76.5366 75.956 72.002C77.4633 69.3886 80.7233 67.0238 83.1437 67.7454C85.8833 68.5597 86.3693 72.9723 87.2285 72.7919C88.0484 72.6213 88.1025 68.4816 87.5526 64.3859C86.7474 58.3642 85.3138 57.4476 85.6574 54.1466C86.1877 49.1098 90.0958 45.8381 90.6604 45.3749C95.9923 41.0403 104.417 41.0354 105.492 43.3953Z" fill="white"/>
<path d="M58.2824 133.628C59.8486 132.482 62.4851 130.556 63.6683 127.104C65.8187 120.829 61.7781 113.583 57.3103 109.644C53.471 106.26 48.1636 105.046 37.5441 102.622C27.5431 100.341 24.5433 100.726 22.7317 97.8246C20.1443 93.6898 23.6252 88.7262 19.8792 84.3526C19.4275 83.826 17.8859 82.0268 15.6913 81.9146C11.9354 81.7245 8.90122 86.615 7.81128 89.8233C6.75571 92.9194 6.27456 98.0781 9.09761 101.126C11.1449 103.329 13.1873 102.554 14.4737 104.792C15.7698 107.045 14.0907 108.512 14.5866 112.789C14.7879 114.495 15.1856 117.928 17.5667 120.166C20.6402 123.062 24.2389 121.346 25.9622 124.042C27.2093 125.992 25.7364 127.523 26.6496 129.966C27.8524 133.184 31.8636 134.442 35.2169 135.452C39.1593 136.627 49.8133 139.82 58.2824 133.628Z" fill="url(#paint2_linear)"/>
<path opacity="0.16" d="M14.9207 83.7284C17.1203 84.4013 13.6982 91.5932 17.5229 98.439C21.6371 105.802 31.6283 108.274 36.2482 109.41C44.1282 111.355 46.6518 109.61 52.3519 112.813C54.6054 114.081 59.3039 116.724 60.5902 122.048C60.7081 122.54 61.96 128.079 58.5969 131.956C54.787 136.349 47.943 135.266 42.0514 134.33C38.487 133.765 31.373 132.638 30.7298 129.118C30.337 126.968 32.4482 124.418 34.4808 123.228C37.3824 121.531 40.5098 122.375 40.6178 121.746C40.716 121.18 38.271 119.946 35.2908 119.41C29.3305 118.333 27.3078 121.117 22.7173 119.81C22.1625 119.649 17.7683 118.333 16.4918 114.598C15.7554 112.447 16.0303 109.434 17.6505 108.435C19.4818 107.303 22.241 109.229 22.5651 108.659C22.8744 108.113 20.5472 106.016 17.9353 104.28C14.1008 101.73 12.8636 102.081 11.155 100.238C8.54803 97.4248 8.63149 93.5972 8.65113 93.0462C8.83769 87.8924 13.0354 83.1531 14.9207 83.7284Z" fill="white"/>
<path d="M80.1005 126.782L79.8845 130.225C79.8845 130.225 80.3755 130.742 81.3231 130.381L82.359 127.002L80.1005 126.782Z" fill="url(#paint3_linear)"/>
<path d="M80.5326 129.308C80.5326 129.308 78.8339 129.996 79.1677 130.742C79.3445 131.141 79.9582 132.043 80.4835 132.794C80.9745 133.492 81.8582 133.799 82.6732 133.555C82.9481 133.472 83.228 133.394 83.4784 133.331C83.9939 133.199 84.0233 132.487 83.5225 132.312C83.282 132.229 83.0414 132.156 82.8303 132.126C82.2068 132.029 81.3525 130.576 81.2543 129.991C81.1561 129.406 80.5326 129.308 80.5326 129.308Z" fill="url(#paint4_linear)"/>
<path d="M76.4581 93.7631C78.9572 94.6212 88.1971 98.0879 90.2543 106.045C90.3623 106.47 90.647 107.65 90.6569 109.58C90.7109 117.611 86.0074 124.408 82.5854 128.362C81.5053 128.343 80.4301 128.328 79.3499 128.309C78.8099 126.261 78.3189 123.194 79.0897 119.742C80.2729 114.471 83.3415 113.101 82.7474 110.517C81.6722 105.816 70.6844 106.528 69.6485 102.32C69.2851 100.799 70.1051 98.2196 76.4581 93.7631Z" fill="url(#paint5_linear)"/>
<path d="M45.5514 141.844L50.2451 141.737C50.5347 141.732 50.6575 141.371 50.4365 141.186C50.2205 141.005 49.9161 140.854 49.5331 140.893C48.6396 140.986 46.6414 139.747 45.7331 140.011C45.4385 140.098 45.193 140.791 45.0703 140.981C44.8199 141.361 45.0997 141.854 45.5514 141.844Z" fill="url(#paint6_linear)"/>
<path d="M47.6571 138.265L45.7277 140.015C45.7277 140.015 46.4003 140.518 47.3871 140.303L49.3608 138.953L47.6571 138.265Z" fill="url(#paint7_linear)"/>
<g opacity="0.3">
<path opacity="0.3" d="M84.7458 114.485C86.0419 111.009 87.5933 106.728 85.821 104.295C84.024 101.832 80.0914 103.91 76.1441 101.925C74.681 101.189 73.1737 99.8724 71.9218 97.4881C69.7075 99.7603 69.4031 101.286 69.6584 102.32C70.6944 106.528 81.6821 105.816 82.7574 110.516C83.3514 113.106 80.2829 114.471 79.0997 119.742C78.432 122.706 78.7069 125.388 79.139 127.382C79.5219 125.529 80.1209 123.579 81.0341 121.614C82.448 118.571 83.3809 118.147 84.7458 114.485Z" fill="url(#paint8_linear)"/>
</g>
<path d="M77.8869 92.7634C76.3649 99.6969 73.1246 110.287 65.7012 121.341C60.2024 129.523 54.1684 135.354 49.4306 139.25C49.0919 139.352 48.5175 139.474 47.8154 139.387C47.29 139.323 46.8776 139.167 46.5978 139.035C46.9218 137.08 47.6141 134.194 49.2441 131.073C52.2291 125.364 54.8902 125.549 57.89 120.512C60.0846 116.826 60.8014 112.906 62.2301 105.07C63.3347 99.0192 63.3347 97.571 64.842 95.8352C67.8909 92.3197 73.6253 92.2807 77.8869 92.7634Z" fill="url(#paint9_linear)"/>
<g opacity="0.3">
<path opacity="0.3" d="M50.388 132.355C51.4534 130.683 53.3436 128.947 57.075 125.515C60.929 121.97 60.7817 122.609 61.5378 121.56C64.9353 116.87 63.0942 111.857 63.9337 105.806C64.4001 102.432 65.9025 98.0196 70.2721 93.0803C68.2248 93.4558 66.2658 94.2603 64.8371 95.8254C63.0844 97.7465 63.212 99.6286 62.2252 105.06C60.7965 112.896 60.0846 116.816 57.885 120.502C54.8902 125.539 52.2291 125.359 49.2441 131.063C47.6141 134.184 46.9218 137.07 46.5978 139.026C46.8776 139.157 47.29 139.313 47.8154 139.377C48.2327 139.425 48.596 139.406 48.9004 139.357C48.6549 135.393 49.848 133.204 50.388 132.355Z" fill="url(#paint10_linear)"/>
</g>
<path d="M82.1922 66.2728C79.1188 65.8194 68.784 64.6297 61.449 70.0516C59.7159 71.334 55.4543 74.4789 56.3871 78.209C57.2856 81.8025 62.7648 84.9962 69.9868 85.3619C70.5809 84.8694 71.1799 84.377 71.7739 83.8796C67.9935 82.685 65.6958 80.33 65.9266 78.4187C66.1279 76.7462 68.2046 75.8052 69.2504 75.3273C72.8099 73.7134 76.6836 74.5667 77.9994 74.9129C79.3937 72.0313 80.793 69.1496 82.1922 66.2728Z" fill="url(#paint11_linear)"/>
<path d="M112.333 53.459C113.065 55.3655 112.569 57.3207 111.228 57.8326C109.883 58.3397 108.204 57.2085 107.472 55.3069C106.741 53.4005 107.237 51.4453 108.577 50.9333C109.917 50.4214 111.601 51.5526 112.333 53.459Z" fill="url(#paint12_linear)"/>
<path d="M93.5869 61.7675L107.918 52.2205C108.105 52.0938 108.34 52.0645 108.552 52.1425C109.465 52.4741 111.807 53.6345 111.262 56.7454C111.217 57.0038 111.031 57.2183 110.776 57.2963L94.1957 62.533L93.5869 61.7675Z" fill="url(#paint13_linear)"/>
<path d="M94.3871 61.943C94.5295 62.3136 94.4313 62.6988 94.171 62.7963C93.9108 62.8938 93.5818 62.6744 93.4345 62.3038C93.2922 61.9332 93.3904 61.5481 93.6506 61.4505C93.9157 61.3481 94.2447 61.5724 94.3871 61.943Z" fill="url(#paint14_linear)"/>
<path d="M105.051 61.6847L103.278 59.6661C103.278 59.6661 104.393 59.5734 104.344 57.9546C104.295 56.3309 105.252 56.8429 105.021 58.096C104.79 59.3491 104.938 60.2756 104.938 60.2756L106.028 61.4653L105.051 61.6847Z" fill="url(#paint15_linear)"/>
<path d="M91.6143 65.1514C92.2575 64.42 92.2133 63.4448 92.2035 63.2352C92.1544 62.3478 92.1053 62.2064 91.9776 61.9967L91.796 61.7188C91.796 61.7188 91.7862 61.7042 91.7714 61.6944C91.634 61.5579 91.0841 61.2799 90.9613 61.2507C90.5637 61.158 89.4835 62.4355 88.6047 64.5517C88.5507 64.6248 88.5016 64.6979 88.4476 64.7711C88.3494 64.9076 88.2807 65.01 88.2758 65.0149C88.1677 65.1758 87.608 65.7316 87.068 66.0242C85.8209 66.6971 83.2728 66.7263 83.209 67.1213C83.1501 67.4918 85.2318 68.1842 87.3577 68.5792C88.8551 68.8571 91.4376 69.1838 91.5947 68.6669C91.7518 68.1501 89.2577 67.3797 89.9303 65.6829C89.999 65.5122 91.143 65.6877 91.6143 65.1514Z" fill="url(#paint16_linear)"/>
<path d="M92.8218 61.4847C92.5125 62.1234 91.8841 62.6647 91.6779 62.6988C91.6533 62.7037 91.4962 62.7378 91.3244 62.8402C91.2998 62.8548 91.2753 62.8743 91.2507 62.8987C90.9169 63.2351 91.3342 64.0153 91.1231 64.1372C90.9709 64.2249 90.6174 63.8446 90.5094 63.9324C90.4112 64.0153 90.6665 64.4054 90.5536 64.5077C90.4652 64.5858 90.2835 64.3907 90.0724 64.4687C89.9693 64.5077 89.9595 64.576 89.7778 64.7662C89.6747 64.8734 89.5471 64.9856 89.4685 65.0392C89.0659 65.3074 88.3687 65.1514 88.3196 64.9417C88.3049 64.8832 88.354 64.8637 88.3835 64.7077C88.3835 64.7077 88.4129 64.5614 88.3933 64.3712C88.3638 64.0933 88.1232 63.791 87.917 63.4156C87.5292 62.7183 87.5439 62.2844 87.5537 62.1381C87.5586 62.0893 87.5635 62.0503 87.5635 62.0211C87.6372 61.4798 87.9661 60.7875 88.3835 60.4608C89.0806 59.9147 89.7238 60.6363 90.7254 60.2414C91.8743 59.7879 91.9577 58.4568 92.4291 58.5299C92.9495 58.608 93.3914 60.3048 92.8218 61.4847Z" fill="#26264F"/>
<path d="M90.9666 63.8788C90.9125 63.5911 90.5394 63.6594 90.4019 63.9373C90.2693 64.2152 90.4019 64.6346 90.6916 64.7028C90.9813 64.7711 91.0402 64.2689 90.9666 63.8788Z" fill="url(#paint17_linear)"/>
<path d="M78.4409 66.3606C79.9482 65.6877 82.0692 65.9461 86.2964 66.5215C89.4729 66.9554 92.3549 67.677 94.0782 68.1159C97.8242 69.0667 99.1548 69.6518 101.683 69.5494C103.465 69.4811 105.503 69.3982 106.372 68.072C107.329 66.6141 106.622 64.0396 104.56 61.7334C105.135 61.4408 105.709 61.1483 106.284 60.8508C107.138 61.2311 109.833 62.5671 111.277 65.6243C112.534 68.2816 112.691 71.8069 110.972 74.4301C109.431 76.7803 106.922 77.575 103.146 78.7745C98.9142 80.1153 98.2465 79.3011 96.3219 80.5834C94.8637 81.5537 93.7296 83.9819 91.5153 88.7944C90.2683 91.5102 89.3158 93.8068 87.4747 97.2345C85.717 100.511 85.2555 100.901 84.7842 101.179C82.5307 102.5 80.7779 100.813 75.0189 100.448C71.3416 100.214 71.2385 100.843 68.0325 100.394C65.0671 99.9796 61.9543 99.5408 60.5649 97.137C59.3866 95.1037 60.1476 92.7146 60.2605 92.3733C61.1295 89.8281 63.2849 89.0869 65.6464 87.1415C67.7625 85.3959 69.0537 83.0896 71.6264 78.4868C76.0352 70.6025 75.3773 67.7258 78.4409 66.3606Z" fill="url(#paint18_linear)"/>
<path opacity="0.3" d="M112.234 70.2369C111.69 71.3144 110.943 72.3481 109.922 73.216C106.613 76.0392 101.708 76.0635 99.1503 76.0733C94.5009 76.0977 91.9528 74.7909 90.7597 76.2244C89.6354 77.5751 91.4815 79.228 90.6665 81.9048C89.6845 85.1327 86.4442 84.5671 83.572 88.3264C80.6214 92.188 81.7309 95.7962 79.4185 96.5617C77.8523 97.0786 77.1601 95.489 74.1014 94.5528C68.5289 92.856 64.7681 96.2887 62.3722 94.3091C61.7684 93.8117 61.1252 92.8658 61.0515 90.8764C60.7324 91.3055 60.4624 91.7882 60.266 92.3733C60.1531 92.7098 59.3921 95.1038 60.5704 97.1371C61.9598 99.5409 65.0775 99.9748 68.038 100.394C71.2489 100.843 71.352 100.214 75.0244 100.448C80.7834 100.818 82.5361 102.501 84.7896 101.179C85.261 100.901 85.7225 100.511 87.4801 97.2346C89.3212 93.8068 90.2737 91.5054 91.5207 88.7944C93.735 83.9771 94.8691 81.5489 96.3273 80.5835C98.2519 79.306 98.9245 80.1154 103.152 78.7745C106.927 77.5751 109.436 76.7803 110.978 74.4301C111.798 73.177 112.185 71.7143 112.234 70.2369Z" fill="url(#paint19_linear)"/>
</g>
<defs>
<linearGradient id="paint0_linear" x1="9.82995" y1="65.0111" x2="107.145" y2="68.9436" gradientUnits="userSpaceOnUse">
<stop stop-color="#FFA439"/>
<stop offset="0.9964" stop-color="#F34A4A"/>
</linearGradient>
<linearGradient id="paint1_linear" x1="91.9889" y1="101.524" x2="115.947" y2="15.5785" gradientUnits="userSpaceOnUse">
<stop offset="0.00359712" stop-color="#FEB26C"/>
<stop offset="1" stop-color="#F67171"/>
</linearGradient>
<linearGradient id="paint2_linear" x1="41.31" y1="120.32" x2="4.84167" y2="63.6099" gradientUnits="userSpaceOnUse">
<stop offset="0.00359712" stop-color="#FFB097"/>
<stop offset="1" stop-color="#FC8C08"/>
</linearGradient>
<linearGradient id="paint3_linear" x1="79.6363" y1="128.782" x2="82.5736" y2="128.278" gradientUnits="userSpaceOnUse">
<stop offset="0.003597" stop-color="#F36F56"/>
<stop offset="1" stop-color="#FFC444"/>
</linearGradient>
<linearGradient id="paint4_linear" x1="83.2542" y1="115.798" x2="80.1927" y2="143.953" gradientUnits="userSpaceOnUse">
<stop stop-color="#444B8C"/>
<stop offset="0.9964" stop-color="#26264F"/>
</linearGradient>
<linearGradient id="paint5_linear" x1="89.0264" y1="103.232" x2="63.8918" y2="124.021" gradientUnits="userSpaceOnUse">
<stop offset="0.003597" stop-color="#26264F"/>
<stop offset="1" stop-color="#444B8C"/>
</linearGradient>
<linearGradient id="paint6_linear" x1="59.0381" y1="112.585" x2="49.9871" y2="135.979" gradientUnits="userSpaceOnUse">
<stop stop-color="#444B8C"/>
<stop offset="0.9964" stop-color="#26264F"/>
</linearGradient>
<linearGradient id="paint7_linear" x1="45.8048" y1="139.175" x2="49.3058" y2="139.507" gradientUnits="userSpaceOnUse">
<stop offset="0.003597" stop-color="#F36F56"/>
<stop offset="1" stop-color="#FFC444"/>
</linearGradient>
<linearGradient id="paint8_linear" x1="100.63" y1="120.855" x2="69.449" y2="110.254" gradientUnits="userSpaceOnUse">
<stop stop-color="#AB316D"/>
<stop offset="1" stop-color="#792D3D"/>
</linearGradient>
<linearGradient id="paint9_linear" x1="68.2453" y1="103.163" x2="50.4171" y2="139.153" gradientUnits="userSpaceOnUse">
<stop offset="0.003597" stop-color="#26264F"/>
<stop offset="1" stop-color="#444B8C"/>
</linearGradient>
<linearGradient id="paint10_linear" x1="65.9897" y1="103.014" x2="48.5319" y2="138.256" gradientUnits="userSpaceOnUse">
<stop stop-color="#AB316D"/>
<stop offset="1" stop-color="#792D3D"/>
</linearGradient>
<linearGradient id="paint11_linear" x1="56.2548" y1="75.6032" x2="82.1927" y2="75.6032" gradientUnits="userSpaceOnUse">
<stop stop-color="#85DAFF"/>
<stop offset="0.6291" stop-color="#797EFF"/>
<stop offset="1" stop-color="#6F85FB"/>
</linearGradient>
<linearGradient id="paint12_linear" x1="106.989" y1="53.7744" x2="112.805" y2="55.0023" gradientUnits="userSpaceOnUse">
<stop offset="0.003597" stop-color="#26264F"/>
<stop offset="1" stop-color="#444B8C"/>
</linearGradient>
<linearGradient id="paint13_linear" x1="94.813" y1="55.9695" x2="110.715" y2="59.3266" gradientUnits="userSpaceOnUse">
<stop offset="0.003597" stop-color="#26264F"/>
<stop offset="1" stop-color="#444B8C"/>
</linearGradient>
<linearGradient id="paint14_linear" x1="93.3431" y1="62.0047" x2="94.4791" y2="62.2446" gradientUnits="userSpaceOnUse">
<stop offset="0.003597" stop-color="#26264F"/>
<stop offset="1" stop-color="#444B8C"/>
</linearGradient>
<linearGradient id="paint15_linear" x1="103.418" y1="59.005" x2="106.416" y2="59.638" gradientUnits="userSpaceOnUse">
<stop stop-color="#FFC444"/>
<stop offset="0.9964" stop-color="#F36F56"/>
</linearGradient>
<linearGradient id="paint16_linear" x1="94.565" y1="61.7014" x2="79.6646" y2="74.7578" gradientUnits="userSpaceOnUse">
<stop stop-color="#FFC444"/>
<stop offset="0.9964" stop-color="#F36F56"/>
</linearGradient>
<linearGradient id="paint17_linear" x1="93.9404" y1="61.4159" x2="81.0461" y2="72.7154" gradientUnits="userSpaceOnUse">
<stop stop-color="#FFC444"/>
<stop offset="0.9964" stop-color="#F36F56"/>
</linearGradient>
<linearGradient id="paint18_linear" x1="59.9139" y1="81.2693" x2="112.242" y2="81.2693" gradientUnits="userSpaceOnUse">
<stop stop-color="#85DAFF"/>
<stop offset="0.6291" stop-color="#797EFF"/>
<stop offset="1" stop-color="#6F85FB"/>
</linearGradient>
<linearGradient id="paint19_linear" x1="59.9194" y1="85.9615" x2="112.235" y2="85.9615" gradientUnits="userSpaceOnUse">
<stop stop-color="#85DAFF"/>
<stop offset="0.6291" stop-color="#797EFF"/>
<stop offset="1" stop-color="#6F85FB"/>
</linearGradient>
<clipPath id="clip0">
<rect width="141" height="142" fill="white"/>
</clipPath>
</defs>
</svg>