<svg xmlns="http://www.w3.org/2000/svg" width="100" height="100" viewBox="0 0 100 100" fill="none">
<rect width="100" height="100" rx="50" fill="#F2EFEF"/>
<path fill-rule="evenodd" clip-rule="evenodd" d="M62 39.5H57.245L54.5 36.5H45.5L42.755 39.5H38C36.35 39.5 35 40.85 35 42.5V60.5C35 62.15 36.35 63.5 38 63.5H62C63.65 63.5 65 62.15 65 60.5V42.5C65 40.85 63.65 39.5 62 39.5ZM50 47L48.59 50.09L45.5 51.5C45.5 49.025 47.525 47 50 47ZM54.5 51.5C54.5 49.025 52.475 47 50 47L51.41 50.09L54.5 51.5ZM50 56L51.41 52.91L54.5 51.5C54.5 53.975 52.475 56 50 56ZM50 56L48.59 52.91L45.5 51.5C45.5 53.975 47.525 56 50 56ZM38 60.5H62V42.5H55.925L55.04 41.525L53.18 39.5H46.82L44.96 41.525L44.075 42.5H38V60.5ZM50 44C45.86 44 42.5 47.36 42.5 51.5C42.5 55.64 45.86 59 50 59C54.14 59 57.5 55.64 57.5 51.5C57.5 47.36 54.14 44 50 44Z" fill="#DCDCDE"/>
</svg>