<svg xmlns="http://www.w3.org/2000/svg" width="24" height="24" viewBox="0 0 24 24" fill="none">
<g clip-path="url(#clip0)">
<path d="M15 3.5L16 2.5L18.5 2H22.5L23.5 3.5V7.5L23 10L21 11V12.5V14L21.5 15L23 17V18.5L21.5 19H14.5V16.5L14 14V12.5V11L15 10V7V3.5Z" fill="url(#paint0_linear)"/>
<path d="M5 5.5H7L8 7.5L9 9.5V13.5V19H6.5L6 17.5L4 16.5L1.5 16V15L3 13.5L5 13V11.5L6.5 8L5 7V5.5Z" fill="url(#paint1_linear)"/>
<path d="M23.9359 17.1123C23.4175 15.0386 22.4728 13.8973 21.4401 13.2984C21.7213 12.94 21.8896 12.489 21.8896 11.9991C21.8896 11.7526 21.8467 11.516 21.7687 11.296H21.8896C23.0527 11.296 23.9989 10.3498 23.9989 9.18671V3.56198C23.9989 2.39892 23.0527 1.4527 21.8896 1.4527H16.2649C15.1018 1.4527 14.1556 2.39892 14.1556 3.56198V9.18671C14.1556 9.46121 14.2089 9.72334 14.3047 9.96414C13.4096 10.2082 12.7495 11.0278 12.7495 11.9991V13.4053C12.7495 13.5995 12.8282 13.7754 12.9555 13.9026C14.1657 15.1128 14.2279 17.0419 13.1436 18.327H9.8433V17.6239C9.8433 17.6239 9.8433 17.6239 9.8433 17.6238V10.593C9.8433 9.80223 9.58066 9.07168 9.1383 8.48373H10.5464C10.9347 8.48373 11.2495 8.16891 11.2495 7.78065C11.2495 7.39233 10.9347 7.07757 10.5464 7.07757H8.43714V6.37449C8.43714 5.21142 7.49092 4.2652 6.32786 4.2652H4.92165C4.53334 4.2652 4.21857 4.58002 4.21857 4.96828V7.78065C4.21857 8.16896 4.53338 8.48373 4.92165 8.48373H5.38014L4.07982 12.7746C1.76564 13.1751 0 15.1971 0 17.6239V19.0301C0 21.005 1.60716 22.5473 3.51005 22.5473C5.21087 22.5473 6.63484 21.4763 6.9648 19.7332C7.19828 19.7332 13.702 19.7332 14.2264 19.7332C14.553 21.3358 15.9734 22.5456 17.6712 22.5456C19.3689 22.5456 20.7892 21.3358 21.1159 19.7332H21.8897C23.2618 19.7331 24.269 18.4445 23.9359 17.1123ZM5.62473 5.67127H6.32781C6.71551 5.67127 7.03089 5.98669 7.03089 6.37435V7.07743C6.52201 7.07743 6.13356 7.07743 5.62468 7.07743V5.67127H5.62473ZM4.58804 20.8797C2.96115 21.6696 1.40616 20.5289 1.40616 19.0301C1.40616 17.8671 2.35233 16.9209 3.51526 16.9208C3.5153 16.9208 3.5153 16.9208 3.51535 16.9208C3.5154 16.9208 3.5154 16.9208 3.51544 16.9208C4.67851 16.9208 5.62473 17.867 5.62473 19.0301C5.62473 19.8478 5.21781 20.5739 4.58804 20.8797ZM8.43714 18.327H6.9602C6.63358 16.7243 5.21321 15.5146 3.51544 15.5146C3.5154 15.5146 3.51535 15.5146 3.5153 15.5146C3.51526 15.5146 3.51521 15.5146 3.51516 15.5146C2.90687 15.5147 2.33424 15.6701 1.83474 15.9433C2.43179 14.851 3.59157 14.1085 4.92165 14.1085C6.86008 14.1085 8.43714 15.6855 8.43714 17.6239V18.327ZM8.43714 14.1832C7.68339 13.4133 6.6797 12.8889 5.55859 12.7434L6.83111 8.54429C7.75202 8.77056 8.43714 9.6032 8.43714 10.5929V14.1832ZM15.5618 3.56203C15.5618 3.17433 15.8772 2.85895 16.2649 2.85895H21.8896C22.2773 2.85895 22.5927 3.17437 22.5927 3.56203V4.26511H15.5618V3.56203ZM15.5618 5.67127H22.5927V9.18676C22.5927 9.57446 22.2773 9.88984 21.8896 9.88984C21.6563 9.88984 16.5334 9.88984 16.2649 9.88984C15.8772 9.88984 15.5618 9.57442 15.5618 9.18676V5.67127H15.5618ZM14.1556 12.7022V11.9991C14.1556 11.6114 14.471 11.296 14.8587 11.296C15.3516 11.296 19.2888 11.296 19.7804 11.296C20.1681 11.296 20.4834 11.6115 20.4834 11.9991C20.4834 12.3868 20.168 12.7022 19.7804 12.7022C19.2461 12.7022 15.465 12.7022 14.8587 12.7022H14.1556ZM17.6711 21.1393C16.7545 21.1393 15.973 20.5421 15.6827 19.7238H19.6594C19.3692 20.5421 18.5877 21.1393 17.6711 21.1393ZM21.8896 18.327H14.8185C15.4846 17.0048 15.4846 15.4306 14.8184 14.1084H14.8587H19.0881C20.8695 14.1084 22.009 15.2026 22.5717 17.4534C22.6826 17.8969 22.3475 18.327 21.8896 18.327Z" fill="url(#paint2_linear)"/>
<path d="M3.51558 19.733C3.90388 19.733 4.21866 19.4182 4.21866 19.0299C4.21866 18.6416 3.90388 18.3268 3.51558 18.3268C3.12728 18.3268 2.8125 18.6416 2.8125 19.0299C2.8125 19.4182 3.12728 19.733 3.51558 19.733Z" fill="url(#paint3_linear)"/>
<path d="M19.0771 15.5146H17.6709C17.2825 15.5146 16.9678 15.8294 16.9678 16.2177C16.9678 16.606 17.2826 16.9208 17.6709 16.9208H19.0771C19.4654 16.9208 19.7801 16.606 19.7801 16.2177C19.7801 15.8294 19.4654 15.5146 19.0771 15.5146Z" fill="url(#paint4_linear)"/>
</g>
<defs>
<linearGradient id="paint0_linear" x1="12.5" y1="2" x2="12.5" y2="19" gradientUnits="userSpaceOnUse">
<stop stop-color="#FEE9D8"/>
<stop offset="1" stop-color="#FEDFD8"/>
</linearGradient>
<linearGradient id="paint1_linear" x1="12.5" y1="2" x2="12.5" y2="19" gradientUnits="userSpaceOnUse">
<stop stop-color="#FEE9D8"/>
<stop offset="1" stop-color="#FEDFD8"/>
</linearGradient>
<linearGradient id="paint2_linear" x1="12" y1="1.4527" x2="12" y2="22.5473" gradientUnits="userSpaceOnUse">
<stop stop-color="#FDB87E"/>
<stop offset="1" stop-color="#FD977E"/>
</linearGradient>
<linearGradient id="paint3_linear" x1="3.51558" y1="18.3268" x2="3.51558" y2="19.733" gradientUnits="userSpaceOnUse">
<stop stop-color="#FDB87E"/>
<stop offset="1" stop-color="#FD977E"/>
</linearGradient>
<linearGradient id="paint4_linear" x1="18.374" y1="15.5146" x2="18.374" y2="16.9208" gradientUnits="userSpaceOnUse">
<stop stop-color="#FDB87E"/>
<stop offset="1" stop-color="#FD977E"/>
</linearGradient>
<clipPath id="clip0">
<rect width="24" height="24" fill="white"/>
</clipPath>
</defs>
</svg>