<svg xmlns="http://www.w3.org/2000/svg" width="40" height="36" viewBox="0 0 40 36" fill="none">
        <path fill-rule="evenodd" clip-rule="evenodd" d="M28.5 9H11.5C10.95 9 10.5 9.45 10.5 10V16C10.5 16.55 10.95 17 11.5 17H28.5C29.05 17 29.5 16.55 29.5 16V10C29.5 9.45 29.05 9 28.5 9ZM27.5 15V11H12.5V15H27.5ZM27.5 25V21H12.5V25H27.5ZM11.5 19H28.5C29.05 19 29.5 19.45 29.5 20V26C29.5 26.55 29.05 27 28.5 27H11.5C10.95 27 10.5 26.55 10.5 26V20C10.5 19.45 10.95 19 11.5 19Z" fill="#333333"/>
        <rect x="0.5" y="0.5" width="39" height="35" rx="7.5" stroke="#D4D7DB"/>
    </svg>