    <svg xmlns="http://www.w3.org/2000/svg" width="40" height="36" viewBox="0 0 40 36" fill="none">
        <path fill-rule="evenodd" clip-rule="evenodd" d="M28.34 9.03L28.5 9C28.78 9 29 9.22 29 9.5V24.62C29 24.85 28.85 25.03 28.64 25.1L23 27L17 24.9L11.66 26.97L11.5 27C11.22 27 11 26.78 11 26.5V11.38C11 11.15 11.15 10.97 11.36 10.9L17 9L23 11.1L28.34 9.03ZM22 12.87L18 11.47V23.13L22 24.53V12.87ZM13 12.46L16 11.45V23.15L13 24.31V12.46ZM24 24.55L27 23.54V11.7L24 12.86V24.55Z" fill="black"/>
        <rect x="0.5" y="0.5" width="39" height="35" rx="7.5" stroke="#D4D7DB"/>
    </svg>